PathFileType	4	(X/Y/Z)	/Users/itak/Documents/Research/Walk-IL/dataset/trc/00141_00007.trc
DataRate	CameraRate	NumFrames	NumMarkers	Units	OrigDataRate	OrigDataStartFrame	OrigNumFrames
100.000000	100.000000	4	53	mm	100.000000	224	599
Frame#	Time	RPSI			LPSI			L3			STRN			T10			C7			CLAV			RBAK			LBAK			LSHO			LUPA			LAEL			LAOL			LWTS			LWPS			LFRA			LIFD			LHPS			LHTS			RSHO			RUPA			RAEL			RAOL			RWTS			RWPS			RFRA			RIFD			RHTS			RHPS			RBHD			LFHD			RFHD			LBHD			LHIP			RHIP			RASI			LASI			LKNE			LTHI			LANK			LTIP			LTOE			LMT1			LMT5			LHEE			RKNE			RTHI			RANK			RTIP			RTOE			RMT1			RMT5			RHEE			
		X1	Y1	Z1	X2	Y2	Z2	X3	Y3	Z3	X4	Y4	Z4	X5	Y5	Z5	X6	Y6	Z6	X7	Y7	Z7	X8	Y8	Z8	X9	Y9	Z9	X10	Y10	Z10	X11	Y11	Z11	X12	Y12	Z12	X13	Y13	Z13	X14	Y14	Z14	X15	Y15	Z15	X16	Y16	Z16	X17	Y17	Z17	X18	Y18	Z18	X19	Y19	Z19	X20	Y20	Z20	X21	Y21	Z21	X22	Y22	Z22	X23	Y23	Z23	X24	Y24	Z24	X25	Y25	Z25	X26	Y26	Z26	X27	Y27	Z27	X28	Y28	Z28	X29	Y29	Z29	X30	Y30	Z30	X31	Y31	Z31	X32	Y32	Z32	X33	Y33	Z33	X34	Y34	Z34	X35	Y35	Z35	X36	Y36	Z36	X37	Y37	Z37	X38	Y38	Z38	X39	Y39	Z39	X40	Y40	Z40	X41	Y41	Z41	X42	Y42	Z42	X43	Y43	Z43	X44	Y44	Z44	X45	Y45	Z45	X46	Y46	Z46	X47	Y47	Z47	X48	Y48	Z48	X49	Y49	Z49	X50	Y50	Z50	X51	Y51	Z51	X52	Y52	Z52	X53	Y53	Z53	

225	2.24	-729.8477172851562	1128.617065429688	1272.90283203125	-738.0010986328125	1130.696044921875	1138.216430664062	-740.45361328125	1166.568725585938	1205.563232421875	-510.0217895507812	1354.467041015625	1194.109619140625	-763.2810668945312	1319.915405273438	1214.751220703125	-713.2613525390625	1609.705078125	1196.664916992188	-537.8363647460938	1491.43798828125	1189.141723632812	-769.704345703125	1430.963500976562	1291.740844726562	-729.7493286132812	1589.529296875	1095.802856445312	-650.7034301757812	1568.025756835938	1018.994689941406	-688.32177734375	1437.774658203125	953.5006103515625	-692.4384765625	1218.1669921875	933.0753173828125	-753.4474487304688	1211.78515625	998.1151733398438	-599.3876953125	956.6650390625	969.2648315429688	-683.8333740234375	933.8179321289062	951.3590087890625	-682.763916015625	1100.814208984375	929.1536865234375	-588.6886596679688	761.7349243164062	985.5557861328125	-658.5076904296875	857.8867797851562	949.4610595703125	-589.6724853515625	867.5071411132812	958.9029541015625	-640.3654174804688	1590.976928710938	1371.081176757812	-650.9396362304688	1519.40478515625	1438.110107421875	-647.5721435546875	1225.372680664062	1473.663208007812	-675.2959594726562	1219.492065429688	1379.735961914062	-479.6972351074219	1000.285766601562	1427.298828125	-541.3035888671875	975.9571533203125	1476.193115234375	-612.7151489257812	1153.68603515625	1484.238647460938	-430.9821166992188	810.1187744140625	1410.9462890625	-435.7323303222656	897.9216918945312	1427.4140625	-491.825927734375	882.1307373046875	1471.052490234375	-643.0758666992188	1778.873046875	1269.672607421875	-517.6990966796875	1829.7724609375	1095.457885742188	-484.1517639160156	1841.716064453125	1220.9755859375	-685.0185546875	1771.509155273438	1141.71728515625	-644.162841796875	1042.364868164062	1023.259399414062	-602.3949584960938	1025.877685546875	1386.23095703125	-519.1869506835938	1096.936157226562	1333.643188476562	-538.4453125	1103.577880859375	1067.166015625	-416.75732421875	577.0314331054688	1060.692138671875	-501.281982421875	708.0350952148438	1032.806396484375	-625.3751220703125	90.76442718505859	1060.861450195312	-561.1080932617188	339.7476501464844	1039.081787109375	-398.5914611816406	65.93291473388672	1080.798583984375	-466.7430419921875	69.07682800292969	1127.124633789062	-509.9479064941406	68.39230346679688	1020.38671875	-683.7314453125	101.8832550048828	1131.803100585938	-632.0308227539062	533.4424438476562	1332.495849609375	-590.4657592773438	810.063720703125	1371.884643554688	-776.8157958984375	30.49135208129883	1297.126342773438	-665.9283447265625	399.5732116699219	1339.469360351562	-549.9749755859375	67.44353485107422	1239.004272460938	-608.7418212890625	52.25614547729492	1198.206787109375	-643.2509155273438	44.88945770263672	1313.545776367188	-836.5968017578125	30.22460556030273	1250.790405273438	
226	2.25	-726.8573608398438	1128.400024414062	1272.968383789062	-734.990234375	1130.629760742188	1138.267822265625	-737.4642333984375	1166.628540039062	1205.707153320312	-506.3972473144531	1353.976196289062	1194.120727539062	-759.7581787109375	1319.972534179688	1215.1298828125	-709.0386352539062	1609.623168945312	1196.768676757812	-533.8907470703125	1491.01708984375	1188.991088867188	-765.7351684570312	1431.1279296875	1292.1728515625	-725.7566528320312	1589.42822265625	1095.98779296875	-646.9798583984375	1567.684326171875	1019.069458007812	-685.1690673828125	1437.548217773438	953.6307983398438	-690.48046875	1218	933.3238525390625	-751.3414306640625	1212.0263671875	998.5474243164062	-599.6141967773438	955.64306640625	969.248046875	-684.3189086914062	933.6268920898438	951.52490234375	-681.744873046875	1100.567504882812	929.3671875	-590.7633666992188	760.6315307617188	985.5801391601562	-659.6982421875	857.425048828125	949.5709228515625	-590.8067626953125	866.4285278320312	958.875	-635.808837890625	1590.958984375	1371.0478515625	-646.2379150390625	1519.451904296875	1438.173583984375	-642.4373168945312	1225.337280273438	1473.97607421875	-670.5972900390625	1219.349365234375	1380.0458984375	-472.9187316894531	1001.686767578125	1426.518432617188	-533.9435424804688	976.6768798828125	1475.526123046875	-607.0421142578125	1153.796020507812	1484.3056640625	-422.4656677246094	812.050048828125	1409.594970703125	-427.9857482910156	899.7384643554688	1426.251342773438	-483.7867736816406	883.3274536132812	1470.045043945312	-638.798828125	1778.586181640625	1269.455810546875	-513.76416015625	1829.390014648438	1094.966186523438	-479.9573974609375	1841.4794921875	1220.398193359375	-680.9574584960938	1771.1181640625	1141.615966796875	-640.8815307617188	1042.472778320312	1023.268798828125	-599.7206420898438	1025.406127929688	1386.343139648438	-516.2717895507812	1096.400390625	1333.825805664062	-535.3251342773438	1103.352905273438	1067.344604492188	-411.2536010742188	578.5834350585938	1061.043334960938	-496.7934265136719	708.7304077148438	1032.771362304688	-609.6996459960938	87.97096252441406	1061.81298828125	-550.705810546875	338.2701416015625	1039.42822265625	-382.4506225585938	66.82929992675781	1082.195068359375	-450.6881103515625	69.03652191162109	1128.323364257812	-493.7808227539062	67.48178100585938	1021.513977050781	-668.2994995117188	98.35334777832031	1132.592651367188	-630.8565063476562	533.0697021484375	1332.69482421875	-588.4653930664062	809.6414794921875	1371.930541992188	-776.6769409179688	30.51602554321289	1297.203247070312	-665.23876953125	399.331298828125	1339.614990234375	-549.8037109375	66.72603607177734	1239.08349609375	-608.5518188476562	51.84976196289062	1198.27392578125	-643.0380859375	44.55197525024414	1313.642822265625	-836.531494140625	30.34043502807617	1250.792602539062	
227	2.26	-723.6957397460938	1128.132934570312	1272.996826171875	-731.816162109375	1130.51025390625	1138.286987304688	-734.3117065429688	1166.642822265625	1205.8173828125	-502.6265563964844	1353.44873046875	1194.092041015625	-756.0853271484375	1319.974731445312	1215.47314453125	-704.7014770507812	1609.48388671875	1196.836181640625	-529.8223876953125	1490.55029296875	1188.80859375	-761.6390380859375	1431.230224609375	1292.561889648438	-721.6492309570312	1589.264038085938	1096.14111328125	-643.1363525390625	1567.285400390625	1019.104309082031	-681.8858642578125	1437.262573242188	953.7308349609375	-688.35302734375	1217.768676757812	933.5491333007812	-749.0548706054688	1212.20751953125	998.9606323242188	-599.7401123046875	954.5514526367188	969.214111328125	-684.6991577148438	933.3981323242188	951.6725463867188	-680.5735473632812	1100.270629882812	929.5643920898438	-592.816650390625	759.4793701171875	985.5758056640625	-660.8342895507812	856.9298706054688	949.6553344726562	-591.8746337890625	865.287109375	958.8153686523438	-631.138427734375	1590.881225585938	1370.983032226562	-641.4190063476562	1519.436401367188	1438.20068359375	-637.2067260742188	1225.238525390625	1474.23486328125	-665.8308715820312	1219.176513671875	1380.353759765625	-466.045654296875	1003.068359375	1425.620727539062	-526.4953002929688	977.3662719726562	1474.755126953125	-601.2687377929688	1153.84521484375	1484.301879882812	-413.820068359375	813.9954223632812	1408.067260742188	-420.1199951171875	901.572021484375	1424.931396484375	-475.623779296875	884.5034790039062	1468.892333984375	-634.402587890625	1778.250610351562	1269.197143554688	-509.7178039550781	1828.951049804688	1094.4296875	-475.6405334472656	1841.195068359375	1219.7724609375	-676.7800903320312	1770.677490234375	1141.475219726562	-637.4642944335938	1042.514404296875	1023.256652832031	-596.8404541015625	1024.908813476562	1386.406982421875	-513.1749267578125	1095.826538085938	1333.9677734375	-532.0526123046875	1103.078857421875	1067.482299804688	-405.9275207519531	579.962158203125	1061.341796875	-492.3463439941406	709.3040771484375	1032.66845703125	-593.4317626953125	84.9876708984375	1062.72802734375	-540.087158203125	336.5691528320312	1039.686279296875	-365.8279418945312	67.76657867431641	1083.87353515625	-434.2056579589844	68.96286010742188	1129.704223632812	-476.9725646972656	66.45881652832031	1022.774230957031	-652.3795166015625	94.58464813232422	1133.249755859375	-629.576416015625	532.6725463867188	1332.86669921875	-586.3180541992188	809.1937866210938	1371.937377929688	-776.5411376953125	30.53815078735352	1297.267578125	-664.4563598632812	399.074951171875	1339.73583984375	-549.5972290039062	65.97690582275391	1239.153442382812	-608.3632202148438	51.43730926513672	1198.354736328125	-642.80126953125	44.22896194458008	1313.729858398438	-836.4633178710938	30.47861099243164	1250.792602539062	
228	2.27	-720.3592529296875	1127.81591796875	1272.979736328125	-728.4750366210938	1130.333618164062	1138.2685546875	-730.9915771484375	1166.605102539062	1205.887939453125	-498.7076416015625	1352.886352539062	1194.022094726562	-752.2579956054688	1319.914672851562	1215.776977539062	-700.2540893554688	1609.283325195312	1196.867309570312	-525.6310424804688	1490.03759765625	1188.592529296875	-757.4183349609375	1431.26318359375	1292.904907226562	-717.4332885742188	1589.033081054688	1096.263061523438	-639.1741943359375	1566.829467773438	1019.094482421875	-678.4769897460938	1436.919189453125	953.8015747070312	-686.0648193359375	1217.475341796875	933.7510375976562	-746.5875244140625	1212.3232421875	999.3598022460938	-599.7537231445312	953.3966674804688	969.159912109375	-684.9600830078125	933.1282348632812	951.8062744140625	-679.2467651367188	1099.924926757812	929.7444458007812	-594.8390502929688	758.2798461914062	985.5396728515625	-661.8975830078125	856.4027099609375	949.715576171875	-592.8523559570312	864.086181640625	958.7206420898438	-626.3604736328125	1590.738159179688	1370.88671875	-636.4906616210938	1519.352172851562	1438.18994140625	-631.87548828125	1225.072143554688	1474.439697265625	-660.99072265625	1218.963745117188	1380.651489257812	-459.0893249511719	1004.418212890625	1424.608642578125	-518.982421875	978.019775390625	1473.88916015625	-595.3904418945312	1153.828369140625	1484.22802734375	-405.0713195800781	815.9353637695312	1406.369262695312	-412.1380004882812	903.408203125	1423.457275390625	-467.3521423339844	885.6459350585938	1467.60009765625	-629.8858642578125	1777.86572265625	1268.898681640625	-505.5584716796875	1828.451782226562	1093.849853515625	-471.2046203613281	1840.85400390625	1219.101196289062	-672.4896850585938	1770.179321289062	1141.29736328125	-633.9014892578125	1042.48486328125	1023.218078613281	-593.7638549804688	1024.3798828125	1386.423217773438	-509.8900146484375	1095.217041015625	1334.068725585938	-528.6207275390625	1102.753173828125	1067.580322265625	-400.7744750976562	581.1552734375	1061.564086914062	-487.9425048828125	709.7566528320312	1032.498657226562	-576.6337280273438	81.88141632080078	1063.616088867188	-529.2763671875	334.6793518066406	1039.85693359375	-348.7945251464844	68.78736114501953	1085.807250976562	-417.35302734375	68.91197967529297	1131.255004882812	-459.6041564941406	65.39162445068359	1024.161254882812	-636.0039672851562	90.65886688232422	1133.806884765625	-628.1846313476562	532.2518310546875	1333.003784179688	-584.013671875	808.7185668945312	1371.899536132812	-776.4197998046875	30.55345726013184	1297.308959960938	-663.5768432617188	398.8082580566406	1339.826782226562	-549.3589477539062	65.21346282958984	1239.217895507812	-608.184814453125	51.0164794921875	1198.451171875	-642.5567626953125	43.92620468139648	1313.81396484375	-836.3942260742188	30.63487434387207	1250.785888671875	
